<mxfile host="app.diagrams.net" modified="2020-09-27T12:56:50.344Z" agent="5.0 (Windows NT 10.0; Win64; x64) AppleWebKit/537.36 (KHTML, like Gecko) Chrome/85.0.4183.121 Safari/537.36" etag="1Lq5bKPahM-zTsTi16CR" version="13.7.5" type="github" pages="4">
  <diagram id="EHLpLCGuZlHUSlOzUa8p" name="Home">
    <mxGraphModel dx="1422" dy="772" grid="1" gridSize="10" guides="1" tooltips="1" connect="1" arrows="1" fold="1" page="0" pageScale="1" pageWidth="850" pageHeight="1100" math="0" shadow="0">
      <root>
        <mxCell id="0" />
        <mxCell id="1" parent="0" />
        <mxCell id="MAxmVRQ6Yx1DebTJ48H1-1" value="" style="whiteSpace=wrap;html=1;rotation=90;" vertex="1" parent="1">
          <mxGeometry x="-30" y="330" width="880" height="400" as="geometry" />
        </mxCell>
        <mxCell id="MAxmVRQ6Yx1DebTJ48H1-2" value="&lt;b&gt;&lt;font style=&quot;font-size: 21px&quot;&gt;Insatgram&lt;/font&gt;&lt;/b&gt;" style="whiteSpace=wrap;html=1;" vertex="1" parent="1">
          <mxGeometry x="220" y="120" width="380" height="60" as="geometry" />
        </mxCell>
        <mxCell id="MAxmVRQ6Yx1DebTJ48H1-3" value="" style="whiteSpace=wrap;html=1;" vertex="1" parent="1">
          <mxGeometry x="220" y="190" width="380" height="70" as="geometry" />
        </mxCell>
        <mxCell id="MAxmVRQ6Yx1DebTJ48H1-4" value="" style="ellipse;whiteSpace=wrap;html=1;aspect=fixed;" vertex="1" parent="1">
          <mxGeometry x="245" y="197.5" width="55" height="55" as="geometry" />
        </mxCell>
        <mxCell id="MAxmVRQ6Yx1DebTJ48H1-5" value="" style="ellipse;whiteSpace=wrap;html=1;aspect=fixed;" vertex="1" parent="1">
          <mxGeometry x="320" y="197.5" width="55" height="55" as="geometry" />
        </mxCell>
        <mxCell id="MAxmVRQ6Yx1DebTJ48H1-6" value="" style="ellipse;whiteSpace=wrap;html=1;aspect=fixed;" vertex="1" parent="1">
          <mxGeometry x="390" y="197.5" width="55" height="55" as="geometry" />
        </mxCell>
        <mxCell id="MAxmVRQ6Yx1DebTJ48H1-7" value="" style="ellipse;whiteSpace=wrap;html=1;aspect=fixed;" vertex="1" parent="1">
          <mxGeometry x="460" y="197.5" width="55" height="55" as="geometry" />
        </mxCell>
        <mxCell id="MAxmVRQ6Yx1DebTJ48H1-8" value="" style="ellipse;whiteSpace=wrap;html=1;aspect=fixed;" vertex="1" parent="1">
          <mxGeometry x="530" y="197.5" width="55" height="55" as="geometry" />
        </mxCell>
        <mxCell id="MAxmVRQ6Yx1DebTJ48H1-9" value="&lt;h1&gt;Photo&lt;/h1&gt;" style="whiteSpace=wrap;html=1;aspect=fixed;" vertex="1" parent="1">
          <mxGeometry x="220" y="280" width="380" height="380" as="geometry" />
        </mxCell>
        <mxCell id="MAxmVRQ6Yx1DebTJ48H1-13" style="edgeStyle=orthogonalEdgeStyle;orthogonalLoop=1;jettySize=auto;html=1;" edge="1" parent="1" source="MAxmVRQ6Yx1DebTJ48H1-9" target="MAxmVRQ6Yx1DebTJ48H1-9">
          <mxGeometry relative="1" as="geometry" />
        </mxCell>
        <mxCell id="MAxmVRQ6Yx1DebTJ48H1-14" value="&amp;nbsp; &amp;nbsp; &amp;nbsp; &amp;nbsp; &amp;nbsp; &amp;nbsp; &amp;nbsp; &amp;nbsp; &amp;nbsp; Username" style="whiteSpace=wrap;html=1;align=left;" vertex="1" parent="1">
          <mxGeometry x="220" y="280" width="380" height="60" as="geometry" />
        </mxCell>
        <mxCell id="MAxmVRQ6Yx1DebTJ48H1-15" value="" style="ellipse;whiteSpace=wrap;html=1;aspect=fixed;" vertex="1" parent="1">
          <mxGeometry x="233" y="290" width="40" height="40" as="geometry" />
        </mxCell>
        <mxCell id="MAxmVRQ6Yx1DebTJ48H1-16" value="" style="whiteSpace=wrap;html=1;" vertex="1" parent="1">
          <mxGeometry x="220" y="660" width="380" height="60" as="geometry" />
        </mxCell>
        <mxCell id="MAxmVRQ6Yx1DebTJ48H1-17" value="" style="verticalLabelPosition=bottom;verticalAlign=top;html=1;shape=mxgraph.basic.heart;" vertex="1" parent="1">
          <mxGeometry x="226" y="670" width="47" height="40" as="geometry" />
        </mxCell>
        <mxCell id="MAxmVRQ6Yx1DebTJ48H1-18" value="" style="shape=image;html=1;verticalAlign=top;verticalLabelPosition=bottom;labelBackgroundColor=#ffffff;imageAspect=0;aspect=fixed;image=https://cdn0.iconfinder.com/data/icons/simple-darkcon-1/92/chat-128.png;" vertex="1" parent="1">
          <mxGeometry x="290" y="666" width="48" height="48" as="geometry" />
        </mxCell>
        <mxCell id="MAxmVRQ6Yx1DebTJ48H1-19" value="" style="shape=image;html=1;verticalAlign=top;verticalLabelPosition=bottom;labelBackgroundColor=#ffffff;imageAspect=0;aspect=fixed;image=https://cdn4.iconfinder.com/data/icons/social-network-35/64/telegram-128.png;" vertex="1" parent="1">
          <mxGeometry x="350" y="660" width="58" height="58" as="geometry" />
        </mxCell>
        <mxCell id="MAxmVRQ6Yx1DebTJ48H1-20" value="" style="shape=image;html=1;verticalAlign=top;verticalLabelPosition=bottom;labelBackgroundColor=#ffffff;imageAspect=0;aspect=fixed;image=https://cdn4.iconfinder.com/data/icons/multimedia-75/512/multimedia-46-128.png;" vertex="1" parent="1">
          <mxGeometry x="540" y="658" width="60" height="60" as="geometry" />
        </mxCell>
        <mxCell id="MAxmVRQ6Yx1DebTJ48H1-21" value="&amp;nbsp;&lt;b&gt;Username&amp;nbsp; &lt;/b&gt;Caption" style="whiteSpace=wrap;html=1;align=left;" vertex="1" parent="1">
          <mxGeometry x="220" y="720" width="380" height="50" as="geometry" />
        </mxCell>
        <mxCell id="MAxmVRQ6Yx1DebTJ48H1-22" value="" style="whiteSpace=wrap;html=1;" vertex="1" parent="1">
          <mxGeometry x="220" y="880" width="370" height="60" as="geometry" />
        </mxCell>
        <mxCell id="MAxmVRQ6Yx1DebTJ48H1-23" value="" style="pointerEvents=1;shadow=0;dashed=0;html=1;strokeColor=none;fillColor=#505050;labelPosition=center;verticalLabelPosition=bottom;verticalAlign=top;outlineConnect=0;align=center;shape=mxgraph.office.concepts.home;" vertex="1" parent="1">
          <mxGeometry x="227" y="887.5" width="52" height="45" as="geometry" />
        </mxCell>
        <mxCell id="MAxmVRQ6Yx1DebTJ48H1-24" value="" style="pointerEvents=1;shadow=0;dashed=0;html=1;strokeColor=none;fillColor=#505050;labelPosition=center;verticalLabelPosition=bottom;verticalAlign=top;outlineConnect=0;align=center;shape=mxgraph.office.concepts.search;" vertex="1" parent="1">
          <mxGeometry x="310" y="891" width="40" height="38" as="geometry" />
        </mxCell>
        <mxCell id="MAxmVRQ6Yx1DebTJ48H1-25" value="" style="shape=image;html=1;verticalAlign=top;verticalLabelPosition=bottom;labelBackgroundColor=#ffffff;imageAspect=0;aspect=fixed;image=https://cdn4.iconfinder.com/data/icons/e-commerce-icon-set/48/More-128.png;" vertex="1" parent="1">
          <mxGeometry x="375" y="888.75" width="42.5" height="42.5" as="geometry" />
        </mxCell>
        <mxCell id="MAxmVRQ6Yx1DebTJ48H1-26" value="" style="verticalLabelPosition=bottom;verticalAlign=top;html=1;shape=mxgraph.basic.heart;" vertex="1" parent="1">
          <mxGeometry x="445" y="890" width="47" height="40" as="geometry" />
        </mxCell>
        <mxCell id="MAxmVRQ6Yx1DebTJ48H1-27" value="" style="shape=image;html=1;verticalAlign=top;verticalLabelPosition=bottom;labelBackgroundColor=#ffffff;imageAspect=0;aspect=fixed;image=https://cdn2.iconfinder.com/data/icons/circle-icons-1/64/profle-128.png;" vertex="1" parent="1">
          <mxGeometry x="520" y="888.75" width="38" height="38" as="geometry" />
        </mxCell>
      </root>
    </mxGraphModel>
  </diagram>
  <diagram id="9WgTgPQoomcfGkyv928l" name="Search">
    <mxGraphModel dx="1422" dy="772" grid="1" gridSize="10" guides="1" tooltips="1" connect="1" arrows="1" fold="1" page="1" pageScale="1" pageWidth="850" pageHeight="1100" math="0" shadow="0">
      <root>
        <mxCell id="AyZskvo4Q0ons6JwPTIh-0" />
        <mxCell id="AyZskvo4Q0ons6JwPTIh-1" parent="AyZskvo4Q0ons6JwPTIh-0" />
        <mxCell id="AyZskvo4Q0ons6JwPTIh-2" value="" style="rounded=1;whiteSpace=wrap;html=1;rotation=90;" vertex="1" parent="AyZskvo4Q0ons6JwPTIh-1">
          <mxGeometry x="110" y="238.25" width="652" height="383.5" as="geometry" />
        </mxCell>
        <mxCell id="AyZskvo4Q0ons6JwPTIh-3" value="&lt;h1&gt;Search&lt;/h1&gt;" style="rounded=1;whiteSpace=wrap;html=1;" vertex="1" parent="AyZskvo4Q0ons6JwPTIh-1">
          <mxGeometry x="280" y="120" width="310" height="60" as="geometry" />
        </mxCell>
        <mxCell id="AyZskvo4Q0ons6JwPTIh-4" value="" style="pointerEvents=1;shadow=0;dashed=0;html=1;strokeColor=none;fillColor=#505050;labelPosition=center;verticalLabelPosition=bottom;verticalAlign=top;outlineConnect=0;align=center;shape=mxgraph.office.concepts.search;" vertex="1" parent="AyZskvo4Q0ons6JwPTIh-1">
          <mxGeometry x="318.5" y="132.5" width="30" height="35" as="geometry" />
        </mxCell>
        <mxCell id="AyZskvo4Q0ons6JwPTIh-5" value="" style="rounded=1;whiteSpace=wrap;html=1;" vertex="1" parent="AyZskvo4Q0ons6JwPTIh-1">
          <mxGeometry x="274.5" y="200" width="75" height="90" as="geometry" />
        </mxCell>
        <mxCell id="AyZskvo4Q0ons6JwPTIh-9" value="" style="rounded=1;whiteSpace=wrap;html=1;" vertex="1" parent="AyZskvo4Q0ons6JwPTIh-1">
          <mxGeometry x="357.5" y="200" width="75" height="90" as="geometry" />
        </mxCell>
        <mxCell id="AyZskvo4Q0ons6JwPTIh-10" value="" style="rounded=1;whiteSpace=wrap;html=1;" vertex="1" parent="AyZskvo4Q0ons6JwPTIh-1">
          <mxGeometry x="439.5" y="200" width="75" height="90" as="geometry" />
        </mxCell>
        <mxCell id="AyZskvo4Q0ons6JwPTIh-11" value="" style="rounded=1;whiteSpace=wrap;html=1;" vertex="1" parent="AyZskvo4Q0ons6JwPTIh-1">
          <mxGeometry x="274.5" y="300" width="75" height="90" as="geometry" />
        </mxCell>
        <mxCell id="AyZskvo4Q0ons6JwPTIh-12" value="" style="rounded=1;whiteSpace=wrap;html=1;" vertex="1" parent="AyZskvo4Q0ons6JwPTIh-1">
          <mxGeometry x="357.5" y="300" width="75" height="90" as="geometry" />
        </mxCell>
        <mxCell id="AyZskvo4Q0ons6JwPTIh-13" value="" style="rounded=1;whiteSpace=wrap;html=1;" vertex="1" parent="AyZskvo4Q0ons6JwPTIh-1">
          <mxGeometry x="439.5" y="300" width="75" height="90" as="geometry" />
        </mxCell>
        <mxCell id="AyZskvo4Q0ons6JwPTIh-14" value="" style="rounded=1;whiteSpace=wrap;html=1;" vertex="1" parent="AyZskvo4Q0ons6JwPTIh-1">
          <mxGeometry x="274.5" y="405" width="75" height="90" as="geometry" />
        </mxCell>
        <mxCell id="AyZskvo4Q0ons6JwPTIh-15" value="" style="rounded=1;whiteSpace=wrap;html=1;" vertex="1" parent="AyZskvo4Q0ons6JwPTIh-1">
          <mxGeometry x="357.5" y="405" width="75" height="90" as="geometry" />
        </mxCell>
        <mxCell id="AyZskvo4Q0ons6JwPTIh-16" value="" style="rounded=1;whiteSpace=wrap;html=1;" vertex="1" parent="AyZskvo4Q0ons6JwPTIh-1">
          <mxGeometry x="439.5" y="405" width="74" height="95" as="geometry" />
        </mxCell>
        <mxCell id="y6pGMUynakalVpGP33dD-0" value="" style="whiteSpace=wrap;html=1;" vertex="1" parent="AyZskvo4Q0ons6JwPTIh-1">
          <mxGeometry x="261" y="660" width="350" height="60" as="geometry" />
        </mxCell>
        <mxCell id="y6pGMUynakalVpGP33dD-1" value="" style="pointerEvents=1;shadow=0;dashed=0;html=1;strokeColor=none;fillColor=#505050;labelPosition=center;verticalLabelPosition=bottom;verticalAlign=top;outlineConnect=0;align=center;shape=mxgraph.office.concepts.home;" vertex="1" parent="AyZskvo4Q0ons6JwPTIh-1">
          <mxGeometry x="268" y="667.5" width="52" height="45" as="geometry" />
        </mxCell>
        <mxCell id="y6pGMUynakalVpGP33dD-2" value="" style="pointerEvents=1;shadow=0;dashed=0;html=1;strokeColor=none;fillColor=#505050;labelPosition=center;verticalLabelPosition=bottom;verticalAlign=top;outlineConnect=0;align=center;shape=mxgraph.office.concepts.search;" vertex="1" parent="AyZskvo4Q0ons6JwPTIh-1">
          <mxGeometry x="351" y="671" width="40" height="38" as="geometry" />
        </mxCell>
        <mxCell id="y6pGMUynakalVpGP33dD-3" value="" style="shape=image;html=1;verticalAlign=top;verticalLabelPosition=bottom;labelBackgroundColor=#ffffff;imageAspect=0;aspect=fixed;image=https://cdn4.iconfinder.com/data/icons/e-commerce-icon-set/48/More-128.png;" vertex="1" parent="AyZskvo4Q0ons6JwPTIh-1">
          <mxGeometry x="416" y="668.75" width="42.5" height="42.5" as="geometry" />
        </mxCell>
        <mxCell id="y6pGMUynakalVpGP33dD-4" value="" style="verticalLabelPosition=bottom;verticalAlign=top;html=1;shape=mxgraph.basic.heart;" vertex="1" parent="AyZskvo4Q0ons6JwPTIh-1">
          <mxGeometry x="486" y="670" width="47" height="40" as="geometry" />
        </mxCell>
        <mxCell id="y6pGMUynakalVpGP33dD-5" value="" style="shape=image;html=1;verticalAlign=top;verticalLabelPosition=bottom;labelBackgroundColor=#ffffff;imageAspect=0;aspect=fixed;image=https://cdn2.iconfinder.com/data/icons/circle-icons-1/64/profle-128.png;" vertex="1" parent="AyZskvo4Q0ons6JwPTIh-1">
          <mxGeometry x="561" y="668.75" width="38" height="38" as="geometry" />
        </mxCell>
        <mxCell id="y6pGMUynakalVpGP33dD-14" value="" style="rounded=1;whiteSpace=wrap;html=1;" vertex="1" parent="AyZskvo4Q0ons6JwPTIh-1">
          <mxGeometry x="523.5" y="200" width="75" height="90" as="geometry" />
        </mxCell>
        <mxCell id="y6pGMUynakalVpGP33dD-15" value="" style="rounded=1;whiteSpace=wrap;html=1;" vertex="1" parent="AyZskvo4Q0ons6JwPTIh-1">
          <mxGeometry x="523.5" y="300" width="75" height="90" as="geometry" />
        </mxCell>
        <mxCell id="y6pGMUynakalVpGP33dD-16" value="" style="rounded=1;whiteSpace=wrap;html=1;" vertex="1" parent="AyZskvo4Q0ons6JwPTIh-1">
          <mxGeometry x="523.5" y="407.5" width="75" height="90" as="geometry" />
        </mxCell>
        <mxCell id="y6pGMUynakalVpGP33dD-18" value="" style="rounded=1;whiteSpace=wrap;html=1;" vertex="1" parent="AyZskvo4Q0ons6JwPTIh-1">
          <mxGeometry x="273.5" y="513" width="75" height="90" as="geometry" />
        </mxCell>
        <mxCell id="y6pGMUynakalVpGP33dD-19" value="" style="rounded=1;whiteSpace=wrap;html=1;" vertex="1" parent="AyZskvo4Q0ons6JwPTIh-1">
          <mxGeometry x="356.5" y="513" width="75" height="90" as="geometry" />
        </mxCell>
        <mxCell id="y6pGMUynakalVpGP33dD-20" value="" style="rounded=1;whiteSpace=wrap;html=1;" vertex="1" parent="AyZskvo4Q0ons6JwPTIh-1">
          <mxGeometry x="438.5" y="513" width="74" height="95" as="geometry" />
        </mxCell>
        <mxCell id="y6pGMUynakalVpGP33dD-21" value="" style="rounded=1;whiteSpace=wrap;html=1;" vertex="1" parent="AyZskvo4Q0ons6JwPTIh-1">
          <mxGeometry x="522.5" y="515.5" width="75" height="90" as="geometry" />
        </mxCell>
      </root>
    </mxGraphModel>
  </diagram>
  <diagram id="b_bqgQomtMnJHN8nf45G" name="Activity">
    <mxGraphModel dx="1422" dy="772" grid="1" gridSize="10" guides="1" tooltips="1" connect="1" arrows="1" fold="1" page="1" pageScale="1" pageWidth="850" pageHeight="1100" math="0" shadow="0">
      <root>
        <mxCell id="aINnYk9cKO_GUKSpAdmT-0" />
        <mxCell id="aINnYk9cKO_GUKSpAdmT-1" parent="aINnYk9cKO_GUKSpAdmT-0" />
        <mxCell id="aINnYk9cKO_GUKSpAdmT-2" value="" style="rounded=1;whiteSpace=wrap;html=1;rotation=90;" vertex="1" parent="aINnYk9cKO_GUKSpAdmT-1">
          <mxGeometry x="53" y="320" width="745" height="370" as="geometry" />
        </mxCell>
        <mxCell id="Zbsrf7UYYxEJj_lXOD7Z-0" value="" style="whiteSpace=wrap;html=1;" vertex="1" parent="aINnYk9cKO_GUKSpAdmT-1">
          <mxGeometry x="250" y="780" width="350" height="60" as="geometry" />
        </mxCell>
        <mxCell id="Zbsrf7UYYxEJj_lXOD7Z-1" value="" style="pointerEvents=1;shadow=0;dashed=0;html=1;strokeColor=none;fillColor=#505050;labelPosition=center;verticalLabelPosition=bottom;verticalAlign=top;outlineConnect=0;align=center;shape=mxgraph.office.concepts.home;" vertex="1" parent="aINnYk9cKO_GUKSpAdmT-1">
          <mxGeometry x="257" y="787.5" width="52" height="45" as="geometry" />
        </mxCell>
        <mxCell id="Zbsrf7UYYxEJj_lXOD7Z-2" value="" style="pointerEvents=1;shadow=0;dashed=0;html=1;strokeColor=none;fillColor=#505050;labelPosition=center;verticalLabelPosition=bottom;verticalAlign=top;outlineConnect=0;align=center;shape=mxgraph.office.concepts.search;" vertex="1" parent="aINnYk9cKO_GUKSpAdmT-1">
          <mxGeometry x="340" y="791" width="40" height="38" as="geometry" />
        </mxCell>
        <mxCell id="Zbsrf7UYYxEJj_lXOD7Z-3" value="" style="shape=image;html=1;verticalAlign=top;verticalLabelPosition=bottom;labelBackgroundColor=#ffffff;imageAspect=0;aspect=fixed;image=https://cdn4.iconfinder.com/data/icons/e-commerce-icon-set/48/More-128.png;" vertex="1" parent="aINnYk9cKO_GUKSpAdmT-1">
          <mxGeometry x="405" y="788.75" width="42.5" height="42.5" as="geometry" />
        </mxCell>
        <mxCell id="Zbsrf7UYYxEJj_lXOD7Z-4" value="" style="verticalLabelPosition=bottom;verticalAlign=top;html=1;shape=mxgraph.basic.heart;" vertex="1" parent="aINnYk9cKO_GUKSpAdmT-1">
          <mxGeometry x="475" y="790" width="47" height="40" as="geometry" />
        </mxCell>
        <mxCell id="Zbsrf7UYYxEJj_lXOD7Z-5" value="" style="shape=image;html=1;verticalAlign=top;verticalLabelPosition=bottom;labelBackgroundColor=#ffffff;imageAspect=0;aspect=fixed;image=https://cdn2.iconfinder.com/data/icons/circle-icons-1/64/profle-128.png;" vertex="1" parent="aINnYk9cKO_GUKSpAdmT-1">
          <mxGeometry x="550" y="788.75" width="38" height="38" as="geometry" />
        </mxCell>
        <mxCell id="Zbsrf7UYYxEJj_lXOD7Z-6" value="&lt;h1&gt;&amp;nbsp;Activity&lt;/h1&gt;" style="rounded=0;whiteSpace=wrap;html=1;fontStyle=1;align=left;" vertex="1" parent="aINnYk9cKO_GUKSpAdmT-1">
          <mxGeometry x="255" y="150" width="333" height="60" as="geometry" />
        </mxCell>
        <mxCell id="Zbsrf7UYYxEJj_lXOD7Z-8" value="" style="rounded=0;whiteSpace=wrap;html=1;" vertex="1" parent="aINnYk9cKO_GUKSpAdmT-1">
          <mxGeometry x="250" y="220" width="340" height="70" as="geometry" />
        </mxCell>
        <mxCell id="Zbsrf7UYYxEJj_lXOD7Z-10" value="" style="ellipse;whiteSpace=wrap;html=1;aspect=fixed;" vertex="1" parent="aINnYk9cKO_GUKSpAdmT-1">
          <mxGeometry x="257" y="227.5" width="55" height="55" as="geometry" />
        </mxCell>
        <mxCell id="Zbsrf7UYYxEJj_lXOD7Z-11" value="Follow Requests" style="rounded=0;whiteSpace=wrap;html=1;align=left;" vertex="1" parent="aINnYk9cKO_GUKSpAdmT-1">
          <mxGeometry x="327.5" y="230" width="185" height="20" as="geometry" />
        </mxCell>
        <mxCell id="Zbsrf7UYYxEJj_lXOD7Z-12" value="Approve or Ignore Requests" style="rounded=0;whiteSpace=wrap;html=1;align=left;" vertex="1" parent="aINnYk9cKO_GUKSpAdmT-1">
          <mxGeometry x="327.5" y="250" width="185" height="20" as="geometry" />
        </mxCell>
        <mxCell id="Zbsrf7UYYxEJj_lXOD7Z-14" value="" style="rounded=0;whiteSpace=wrap;html=1;" vertex="1" parent="aINnYk9cKO_GUKSpAdmT-1">
          <mxGeometry x="250" y="310" width="340" height="450" as="geometry" />
        </mxCell>
        <mxCell id="Zbsrf7UYYxEJj_lXOD7Z-15" value="" style="rounded=1;whiteSpace=wrap;html=1;" vertex="1" parent="aINnYk9cKO_GUKSpAdmT-1">
          <mxGeometry x="260" y="315" width="320" height="70" as="geometry" />
        </mxCell>
        <mxCell id="Zbsrf7UYYxEJj_lXOD7Z-16" value="" style="ellipse;whiteSpace=wrap;html=1;aspect=fixed;" vertex="1" parent="aINnYk9cKO_GUKSpAdmT-1">
          <mxGeometry x="272.5" y="326.25" width="47.5" height="47.5" as="geometry" />
        </mxCell>
        <mxCell id="Zbsrf7UYYxEJj_lXOD7Z-17" value="" style="whiteSpace=wrap;html=1;aspect=fixed;" vertex="1" parent="aINnYk9cKO_GUKSpAdmT-1">
          <mxGeometry x="512.5" y="325" width="50" height="50" as="geometry" />
        </mxCell>
        <mxCell id="Zbsrf7UYYxEJj_lXOD7Z-18" value="Elon Mask Just posted a new Photo" style="rounded=0;whiteSpace=wrap;html=1;align=left;" vertex="1" parent="aINnYk9cKO_GUKSpAdmT-1">
          <mxGeometry x="340" y="330" width="160" height="40" as="geometry" />
        </mxCell>
        <mxCell id="Zbsrf7UYYxEJj_lXOD7Z-19" value="" style="rounded=1;whiteSpace=wrap;html=1;" vertex="1" parent="aINnYk9cKO_GUKSpAdmT-1">
          <mxGeometry x="261.5" y="400" width="320" height="70" as="geometry" />
        </mxCell>
        <mxCell id="Zbsrf7UYYxEJj_lXOD7Z-20" value="" style="ellipse;whiteSpace=wrap;html=1;aspect=fixed;" vertex="1" parent="aINnYk9cKO_GUKSpAdmT-1">
          <mxGeometry x="274" y="411.25" width="47.5" height="47.5" as="geometry" />
        </mxCell>
        <mxCell id="Zbsrf7UYYxEJj_lXOD7Z-21" value="" style="whiteSpace=wrap;html=1;aspect=fixed;" vertex="1" parent="aINnYk9cKO_GUKSpAdmT-1">
          <mxGeometry x="514" y="410" width="50" height="50" as="geometry" />
        </mxCell>
        <mxCell id="Zbsrf7UYYxEJj_lXOD7Z-22" value="Elon Mask Just posted a new Photo" style="rounded=0;whiteSpace=wrap;html=1;align=left;" vertex="1" parent="aINnYk9cKO_GUKSpAdmT-1">
          <mxGeometry x="341.5" y="415" width="160" height="40" as="geometry" />
        </mxCell>
        <mxCell id="Zbsrf7UYYxEJj_lXOD7Z-23" value="" style="rounded=1;whiteSpace=wrap;html=1;" vertex="1" parent="aINnYk9cKO_GUKSpAdmT-1">
          <mxGeometry x="261.5" y="480" width="320" height="70" as="geometry" />
        </mxCell>
        <mxCell id="Zbsrf7UYYxEJj_lXOD7Z-24" value="" style="ellipse;whiteSpace=wrap;html=1;aspect=fixed;" vertex="1" parent="aINnYk9cKO_GUKSpAdmT-1">
          <mxGeometry x="274" y="491.25" width="47.5" height="47.5" as="geometry" />
        </mxCell>
        <mxCell id="Zbsrf7UYYxEJj_lXOD7Z-25" value="" style="whiteSpace=wrap;html=1;aspect=fixed;" vertex="1" parent="aINnYk9cKO_GUKSpAdmT-1">
          <mxGeometry x="514" y="490" width="50" height="50" as="geometry" />
        </mxCell>
        <mxCell id="Zbsrf7UYYxEJj_lXOD7Z-26" value="Elon Mask Just posted a new Photo" style="rounded=0;whiteSpace=wrap;html=1;align=left;" vertex="1" parent="aINnYk9cKO_GUKSpAdmT-1">
          <mxGeometry x="341.5" y="495" width="160" height="40" as="geometry" />
        </mxCell>
        <mxCell id="Zbsrf7UYYxEJj_lXOD7Z-27" value="" style="rounded=1;whiteSpace=wrap;html=1;" vertex="1" parent="aINnYk9cKO_GUKSpAdmT-1">
          <mxGeometry x="261.5" y="560" width="320" height="70" as="geometry" />
        </mxCell>
        <mxCell id="Zbsrf7UYYxEJj_lXOD7Z-28" value="" style="ellipse;whiteSpace=wrap;html=1;aspect=fixed;" vertex="1" parent="aINnYk9cKO_GUKSpAdmT-1">
          <mxGeometry x="274" y="571.25" width="47.5" height="47.5" as="geometry" />
        </mxCell>
        <mxCell id="Zbsrf7UYYxEJj_lXOD7Z-29" value="" style="whiteSpace=wrap;html=1;aspect=fixed;" vertex="1" parent="aINnYk9cKO_GUKSpAdmT-1">
          <mxGeometry x="514" y="570" width="50" height="50" as="geometry" />
        </mxCell>
        <mxCell id="Zbsrf7UYYxEJj_lXOD7Z-30" value="Elon Mask Just posted a new Photo" style="rounded=0;whiteSpace=wrap;html=1;align=left;" vertex="1" parent="aINnYk9cKO_GUKSpAdmT-1">
          <mxGeometry x="341.5" y="575" width="160" height="40" as="geometry" />
        </mxCell>
        <mxCell id="Zbsrf7UYYxEJj_lXOD7Z-31" value="" style="rounded=1;whiteSpace=wrap;html=1;" vertex="1" parent="aINnYk9cKO_GUKSpAdmT-1">
          <mxGeometry x="261.5" y="640" width="320" height="70" as="geometry" />
        </mxCell>
        <mxCell id="Zbsrf7UYYxEJj_lXOD7Z-32" value="" style="ellipse;whiteSpace=wrap;html=1;aspect=fixed;" vertex="1" parent="aINnYk9cKO_GUKSpAdmT-1">
          <mxGeometry x="274" y="651.25" width="47.5" height="47.5" as="geometry" />
        </mxCell>
        <mxCell id="Zbsrf7UYYxEJj_lXOD7Z-33" value="" style="whiteSpace=wrap;html=1;aspect=fixed;" vertex="1" parent="aINnYk9cKO_GUKSpAdmT-1">
          <mxGeometry x="514" y="650" width="50" height="50" as="geometry" />
        </mxCell>
        <mxCell id="Zbsrf7UYYxEJj_lXOD7Z-34" value="Elon Mask Just posted a new Photo" style="rounded=0;whiteSpace=wrap;html=1;align=left;" vertex="1" parent="aINnYk9cKO_GUKSpAdmT-1">
          <mxGeometry x="341.5" y="655" width="160" height="40" as="geometry" />
        </mxCell>
      </root>
    </mxGraphModel>
  </diagram>
  <diagram id="LpB6D7HyM7RoR02zbLpv" name="Profile">
    <mxGraphModel dx="1422" dy="772" grid="1" gridSize="10" guides="1" tooltips="1" connect="1" arrows="1" fold="1" page="1" pageScale="1" pageWidth="850" pageHeight="1100" math="0" shadow="0">
      <root>
        <mxCell id="KY_-ir7kLGh8udQRxrWU-0" />
        <mxCell id="KY_-ir7kLGh8udQRxrWU-1" parent="KY_-ir7kLGh8udQRxrWU-0" />
        <mxCell id="yn6lvHD-_DfrTzwLZ9DV-0" value="" style="rounded=1;whiteSpace=wrap;html=1;rotation=90;" vertex="1" parent="KY_-ir7kLGh8udQRxrWU-1">
          <mxGeometry x="53" y="320" width="745" height="370" as="geometry" />
        </mxCell>
        <mxCell id="yn6lvHD-_DfrTzwLZ9DV-1" value="" style="whiteSpace=wrap;html=1;" vertex="1" parent="KY_-ir7kLGh8udQRxrWU-1">
          <mxGeometry x="250" y="780" width="350" height="60" as="geometry" />
        </mxCell>
        <mxCell id="yn6lvHD-_DfrTzwLZ9DV-2" value="" style="pointerEvents=1;shadow=0;dashed=0;html=1;strokeColor=none;fillColor=#505050;labelPosition=center;verticalLabelPosition=bottom;verticalAlign=top;outlineConnect=0;align=center;shape=mxgraph.office.concepts.home;" vertex="1" parent="KY_-ir7kLGh8udQRxrWU-1">
          <mxGeometry x="257" y="787.5" width="52" height="45" as="geometry" />
        </mxCell>
        <mxCell id="yn6lvHD-_DfrTzwLZ9DV-3" value="" style="pointerEvents=1;shadow=0;dashed=0;html=1;strokeColor=none;fillColor=#505050;labelPosition=center;verticalLabelPosition=bottom;verticalAlign=top;outlineConnect=0;align=center;shape=mxgraph.office.concepts.search;" vertex="1" parent="KY_-ir7kLGh8udQRxrWU-1">
          <mxGeometry x="340" y="791" width="40" height="38" as="geometry" />
        </mxCell>
        <mxCell id="yn6lvHD-_DfrTzwLZ9DV-4" value="" style="shape=image;html=1;verticalAlign=top;verticalLabelPosition=bottom;labelBackgroundColor=#ffffff;imageAspect=0;aspect=fixed;image=https://cdn4.iconfinder.com/data/icons/e-commerce-icon-set/48/More-128.png;" vertex="1" parent="KY_-ir7kLGh8udQRxrWU-1">
          <mxGeometry x="405" y="788.75" width="42.5" height="42.5" as="geometry" />
        </mxCell>
        <mxCell id="yn6lvHD-_DfrTzwLZ9DV-5" value="" style="verticalLabelPosition=bottom;verticalAlign=top;html=1;shape=mxgraph.basic.heart;" vertex="1" parent="KY_-ir7kLGh8udQRxrWU-1">
          <mxGeometry x="475" y="790" width="47" height="40" as="geometry" />
        </mxCell>
        <mxCell id="yn6lvHD-_DfrTzwLZ9DV-6" value="" style="shape=image;html=1;verticalAlign=top;verticalLabelPosition=bottom;labelBackgroundColor=#ffffff;imageAspect=0;aspect=fixed;image=https://cdn2.iconfinder.com/data/icons/circle-icons-1/64/profle-128.png;" vertex="1" parent="KY_-ir7kLGh8udQRxrWU-1">
          <mxGeometry x="550" y="788.75" width="38" height="38" as="geometry" />
        </mxCell>
        <mxCell id="yn6lvHD-_DfrTzwLZ9DV-7" value="&lt;h2&gt;&amp;nbsp;Username&lt;/h2&gt;" style="rounded=1;whiteSpace=wrap;html=1;align=left;" vertex="1" parent="KY_-ir7kLGh8udQRxrWU-1">
          <mxGeometry x="256" y="160" width="333" height="60" as="geometry" />
        </mxCell>
        <mxCell id="yn6lvHD-_DfrTzwLZ9DV-8" value="" style="rounded=1;whiteSpace=wrap;html=1;" vertex="1" parent="KY_-ir7kLGh8udQRxrWU-1">
          <mxGeometry x="260" y="230" width="330" height="70" as="geometry" />
        </mxCell>
        <mxCell id="yn6lvHD-_DfrTzwLZ9DV-9" value="" style="ellipse;whiteSpace=wrap;html=1;aspect=fixed;" vertex="1" parent="KY_-ir7kLGh8udQRxrWU-1">
          <mxGeometry x="270" y="235" width="60" height="60" as="geometry" />
        </mxCell>
        <mxCell id="yn6lvHD-_DfrTzwLZ9DV-10" value="" style="rounded=1;whiteSpace=wrap;html=1;" vertex="1" parent="KY_-ir7kLGh8udQRxrWU-1">
          <mxGeometry x="363" y="237.5" width="207" height="55" as="geometry" />
        </mxCell>
        <mxCell id="yn6lvHD-_DfrTzwLZ9DV-11" value="&lt;b&gt;3&lt;/b&gt;&lt;br&gt;Posts" style="whiteSpace=wrap;html=1;aspect=fixed;" vertex="1" parent="KY_-ir7kLGh8udQRxrWU-1">
          <mxGeometry x="375" y="240" width="50" height="50" as="geometry" />
        </mxCell>
        <mxCell id="yn6lvHD-_DfrTzwLZ9DV-12" value="&lt;b&gt;200&lt;/b&gt;&lt;br&gt;follower" style="whiteSpace=wrap;html=1;aspect=fixed;" vertex="1" parent="KY_-ir7kLGh8udQRxrWU-1">
          <mxGeometry x="440" y="240" width="50" height="50" as="geometry" />
        </mxCell>
        <mxCell id="yn6lvHD-_DfrTzwLZ9DV-13" value="&lt;b&gt;300&lt;/b&gt;&lt;br&gt;following" style="whiteSpace=wrap;html=1;aspect=fixed;" vertex="1" parent="KY_-ir7kLGh8udQRxrWU-1">
          <mxGeometry x="500" y="240" width="50" height="50" as="geometry" />
        </mxCell>
        <mxCell id="yn6lvHD-_DfrTzwLZ9DV-14" value="" style="rounded=1;whiteSpace=wrap;html=1;" vertex="1" parent="KY_-ir7kLGh8udQRxrWU-1">
          <mxGeometry x="260" y="310" width="330" height="80" as="geometry" />
        </mxCell>
        <mxCell id="yn6lvHD-_DfrTzwLZ9DV-15" value="Full Name&lt;br&gt;Bio&lt;br&gt;Website" style="rounded=1;whiteSpace=wrap;html=1;align=left;" vertex="1" parent="KY_-ir7kLGh8udQRxrWU-1">
          <mxGeometry x="270" y="320" width="210" height="60" as="geometry" />
        </mxCell>
        <mxCell id="yn6lvHD-_DfrTzwLZ9DV-16" value="" style="rounded=1;whiteSpace=wrap;html=1;" vertex="1" parent="KY_-ir7kLGh8udQRxrWU-1">
          <mxGeometry x="260" y="400" width="330" height="80" as="geometry" />
        </mxCell>
        <mxCell id="yn6lvHD-_DfrTzwLZ9DV-21" value="" style="rounded=1;whiteSpace=wrap;html=1;" vertex="1" parent="KY_-ir7kLGh8udQRxrWU-1">
          <mxGeometry x="270" y="410" width="140" height="60" as="geometry" />
        </mxCell>
        <mxCell id="yn6lvHD-_DfrTzwLZ9DV-22" value="" style="rounded=1;whiteSpace=wrap;html=1;" vertex="1" parent="KY_-ir7kLGh8udQRxrWU-1">
          <mxGeometry x="439" y="410" width="141" height="60" as="geometry" />
        </mxCell>
        <mxCell id="yn6lvHD-_DfrTzwLZ9DV-23" value="" style="shape=image;html=1;verticalAlign=top;verticalLabelPosition=bottom;labelBackgroundColor=#ffffff;imageAspect=0;aspect=fixed;image=https://cdn1.iconfinder.com/data/icons/social-media-outline-6/128/SocialMedia_Instagram-Outline-128.png" vertex="1" parent="KY_-ir7kLGh8udQRxrWU-1">
          <mxGeometry x="480" y="416" width="48" height="48" as="geometry" />
        </mxCell>
        <mxCell id="yn6lvHD-_DfrTzwLZ9DV-24" value="" style="shape=image;html=1;verticalAlign=top;verticalLabelPosition=bottom;labelBackgroundColor=#ffffff;imageAspect=0;aspect=fixed;image=https://cdn4.iconfinder.com/data/icons/miu/24/editor-grid-view-block-glyph-128.png" vertex="1" parent="KY_-ir7kLGh8udQRxrWU-1">
          <mxGeometry x="309" y="416" width="48" height="48" as="geometry" />
        </mxCell>
        <mxCell id="yn6lvHD-_DfrTzwLZ9DV-25" value="" style="rounded=1;whiteSpace=wrap;html=1;" vertex="1" parent="KY_-ir7kLGh8udQRxrWU-1">
          <mxGeometry x="260" y="490" width="320" height="260" as="geometry" />
        </mxCell>
        <mxCell id="yn6lvHD-_DfrTzwLZ9DV-26" value="" style="whiteSpace=wrap;html=1;aspect=fixed;" vertex="1" parent="KY_-ir7kLGh8udQRxrWU-1">
          <mxGeometry x="277" y="510" width="80" height="80" as="geometry" />
        </mxCell>
        <mxCell id="yn6lvHD-_DfrTzwLZ9DV-27" value="" style="whiteSpace=wrap;html=1;aspect=fixed;" vertex="1" parent="KY_-ir7kLGh8udQRxrWU-1">
          <mxGeometry x="375" y="510" width="80" height="80" as="geometry" />
        </mxCell>
        <mxCell id="yn6lvHD-_DfrTzwLZ9DV-28" value="" style="whiteSpace=wrap;html=1;aspect=fixed;" vertex="1" parent="KY_-ir7kLGh8udQRxrWU-1">
          <mxGeometry x="475" y="510" width="80" height="80" as="geometry" />
        </mxCell>
        <mxCell id="yn6lvHD-_DfrTzwLZ9DV-29" value="" style="whiteSpace=wrap;html=1;aspect=fixed;" vertex="1" parent="KY_-ir7kLGh8udQRxrWU-1">
          <mxGeometry x="276" y="610" width="80" height="80" as="geometry" />
        </mxCell>
        <mxCell id="yn6lvHD-_DfrTzwLZ9DV-30" value="" style="whiteSpace=wrap;html=1;aspect=fixed;" vertex="1" parent="KY_-ir7kLGh8udQRxrWU-1">
          <mxGeometry x="374" y="610" width="80" height="80" as="geometry" />
        </mxCell>
        <mxCell id="yn6lvHD-_DfrTzwLZ9DV-31" value="" style="whiteSpace=wrap;html=1;aspect=fixed;" vertex="1" parent="KY_-ir7kLGh8udQRxrWU-1">
          <mxGeometry x="474" y="610" width="80" height="80" as="geometry" />
        </mxCell>
      </root>
    </mxGraphModel>
  </diagram>
</mxfile>
